<svg width="47" height="46" viewBox="0 0 47 46" fill="none" xmlns="http://www.w3.org/2000/svg">
<circle cx="23.8438" cy="23" r="22" stroke="#D2D2D2" stroke-width="2"/>
<g clip-path="url(#clip0_4_340)">
<path d="M32.0732 24.0937H16.6143C16.3786 24.0937 16.1654 23.9488 16.0752 23.7273C15.9849 23.5052 16.0348 23.2499 16.2016 23.0801L23.2014 15.9551C23.4294 15.723 23.7981 15.723 24.0261 15.9551C24.2541 16.1873 24.2541 16.5625 24.0261 16.7947L18.0227 22.9062H32.0726C32.3956 22.9062 32.6562 23.1722 32.6562 23.4999C32.6562 23.8277 32.3956 24.0937 32.0732 24.0937Z" fill="#252525"/>
<path d="M23.6146 31.2187C23.4656 31.2187 23.3159 31.1605 23.2019 31.0447L18.5351 26.2947C18.3071 26.0625 18.3071 25.6873 18.5351 25.4551C18.7631 25.223 19.1318 25.223 19.3598 25.4551L24.0267 30.2051C24.2547 30.4373 24.2547 30.8125 24.0267 31.0447C23.9133 31.1605 23.7636 31.2187 23.6146 31.2187Z" fill="#252525"/>
</g>
<defs>
<clipPath id="clip0_4_340">
<rect width="19" height="19" fill="white" transform="translate(14.8438 14)"/>
</clipPath>
</defs>
</svg>
