<svg width="47" height="46" viewBox="0 0 47 46" fill="none" xmlns="http://www.w3.org/2000/svg">
<circle cx="23" cy="23" r="22" transform="matrix(-1 0 0 1 46.8438 0)" stroke="#D2D2D2" stroke-width="2"/>
<path d="M1.84375 23C1.84375 35.1503 11.6935 45 23.8437 45C35.994 45 45.8438 35.1503 45.8438 23C45.8438 10.8497 35.994 1 23.8437 1" stroke="#252525" stroke-width="2"/>
<g clip-path="url(#clip0_4_327)">
<path d="M15.6143 24.0937H31.0732C31.3089 24.0937 31.5221 23.9488 31.6123 23.7273C31.7026 23.5052 31.6527 23.2499 31.4859 23.0801L24.4861 15.9551C24.2581 15.723 23.8894 15.723 23.6614 15.9551C23.4334 16.1873 23.4334 16.5625 23.6614 16.7947L29.6648 22.9062H15.6149C15.2919 22.9062 15.0313 23.1722 15.0313 23.4999C15.0313 23.8277 15.2919 24.0937 15.6143 24.0937Z" fill="#252525"/>
<path d="M24.0729 31.2187C24.2219 31.2187 24.3716 31.1605 24.4856 31.0447L29.1524 26.2947C29.3804 26.0625 29.3804 25.6873 29.1524 25.4551C28.9244 25.223 28.5557 25.223 28.3277 25.4551L23.6608 30.2051C23.4328 30.4373 23.4328 30.8125 23.6608 31.0447C23.7742 31.1605 23.9239 31.2187 24.0729 31.2187Z" fill="#252525"/>
</g>
<defs>
<clipPath id="clip0_4_327">
<rect width="19" height="19" fill="white" transform="matrix(-1 0 0 1 32.8438 14)"/>
</clipPath>
</defs>
</svg>
