<svg width="24" height="24" viewBox="0 0 24 24" fill="none" xmlns="http://www.w3.org/2000/svg">
<rect opacity="0.1" x="0.192871" y="0.344604" width="23.5722" height="23.5722" rx="11.7861" fill="white"/>
<path d="M11.9791 16.6939C11.819 16.6959 11.6602 16.666 11.5118 16.6059C11.3634 16.5458 11.2284 16.4567 11.1148 16.3439L8.11133 13.3188C7.75405 12.9696 7.49429 12.533 7.35783 12.0524C7.22138 11.5717 7.21297 11.0638 7.33345 10.5789C7.46122 10.1105 7.70717 9.68271 8.04771 9.33661C8.38826 8.99051 8.81199 8.73768 9.27829 8.60234C9.7446 8.467 10.2378 8.4537 10.7108 8.56371C11.1837 8.67371 11.6204 8.90334 11.9791 9.23058C12.3378 8.90334 12.7746 8.67371 13.2475 8.56371C13.7204 8.4537 14.2137 8.467 14.68 8.60234C15.1463 8.73768 15.57 8.99051 15.9106 9.33661C16.2511 9.68271 16.4971 10.1105 16.6248 10.5789C16.7477 11.0681 16.7393 11.581 16.6005 12.0659C16.4616 12.5508 16.1972 12.9904 15.834 13.3404L12.8089 16.3655C12.5845 16.5771 12.2875 16.6946 11.9791 16.6939ZM10.0647 9.13983C9.59715 9.13983 9.14223 9.29147 8.76821 9.57199C8.37274 9.86213 8.08774 10.2782 7.96008 10.7518C7.86697 11.1302 7.87548 11.5266 7.98476 11.9007C8.09404 12.2748 8.3002 12.6135 8.58238 12.8823L11.6075 15.9074C11.712 16.0114 11.8533 16.0698 12.0007 16.0698C12.1481 16.0698 12.2895 16.0114 12.394 15.9074L15.4191 12.9039C15.6978 12.6278 15.8982 12.2828 16 11.9039C16.1017 11.5251 16.1011 11.126 15.9982 10.7475C15.8708 10.2761 15.5874 9.86173 15.1944 9.57199C14.7478 9.24549 14.1949 9.09851 13.6451 9.16013C13.0953 9.22175 12.5887 9.48748 12.2255 9.90475C12.1933 9.93742 12.155 9.96336 12.1127 9.98106C12.0704 9.99877 12.025 10.0079 11.9791 10.0079C11.9333 10.0079 11.8879 9.99877 11.8456 9.98106C11.8033 9.96336 11.765 9.93742 11.7328 9.90475C11.5262 9.66467 11.2702 9.47204 10.9823 9.34002C10.6944 9.20801 10.3814 9.13972 10.0647 9.13983Z" fill="white"/>
</svg>
