<svg width="12" height="11" viewBox="0 0 12 11" fill="none" xmlns="http://www.w3.org/2000/svg">
<path d="M5.97914 9.69394C5.81904 9.6959 5.66017 9.66595 5.51177 9.60585C5.36337 9.54575 5.22843 9.4567 5.11482 9.34389L2.11133 6.31879C1.75405 5.96956 1.49429 5.53297 1.35783 5.05235C1.22138 4.57173 1.21297 4.06379 1.33345 3.57891C1.46122 3.11048 1.70717 2.68271 2.04771 2.33661C2.38826 1.99051 2.81199 1.73768 3.27829 1.60234C3.7446 1.467 4.23785 1.4537 4.71077 1.56371C5.18369 1.67371 5.62043 1.90334 5.97914 2.23058C6.33784 1.90334 6.77458 1.67371 7.2475 1.56371C7.72043 1.4537 8.21368 1.467 8.67998 1.60234C9.14629 1.73768 9.57002 1.99051 9.91056 2.33661C10.2511 2.68271 10.4971 3.11048 10.6248 3.57891C10.7477 4.06809 10.7393 4.58104 10.6005 5.06592C10.4616 5.55081 10.1972 5.99044 9.83398 6.3404L6.80888 9.3655C6.58448 9.57707 6.28754 9.6946 5.97914 9.69394ZM4.06468 2.13983C3.59715 2.13983 3.14223 2.29147 2.76821 2.57199C2.37274 2.86213 2.08774 3.27819 1.96008 3.75178C1.86697 4.13025 1.87548 4.5266 1.98476 4.90072C2.09404 5.27484 2.3002 5.61346 2.58238 5.88231L5.60748 8.90741C5.71195 9.01139 5.85335 9.06976 6.00074 9.06976C6.14814 9.06976 6.28954 9.01139 6.39401 8.90741L9.41911 5.90392C9.69779 5.62784 9.89822 5.28277 9.99996 4.90391C10.1017 4.52506 10.1011 4.126 9.9982 3.74746C9.87078 3.27606 9.58745 2.86173 9.19438 2.57199C8.74778 2.24549 8.1949 2.09851 7.64512 2.16013C7.09534 2.22175 6.58871 2.48748 6.22547 2.90475C6.1933 2.93742 6.15495 2.96336 6.11266 2.98106C6.07037 2.99877 6.02498 3.00789 5.97914 3.00789C5.93329 3.00789 5.8879 2.99877 5.84561 2.98106C5.80332 2.96336 5.76498 2.93742 5.73281 2.90475C5.52622 2.66467 5.27022 2.47204 4.98232 2.34002C4.69442 2.20801 4.38141 2.13972 4.06468 2.13983Z" fill="white"/>
</svg>
