<svg width="14" height="14" viewBox="0 0 14 14" fill="none" xmlns="http://www.w3.org/2000/svg">
<g clip-path="url(#clip0_54_646)">
<path d="M1.13458 13.8744C1.00902 13.8744 0.886269 13.8372 0.78186 13.7674C0.677452 13.6977 0.596074 13.5986 0.54802 13.4825C0.499967 13.3665 0.487396 13.2389 0.511898 13.1157C0.536401 12.9926 0.596875 12.8795 0.685673 12.7907L12.4161 1.06024C12.5352 0.941184 12.6967 0.874298 12.865 0.874298C13.0334 0.874298 13.1949 0.941184 13.314 1.06024C13.433 1.1793 13.4999 1.34078 13.4999 1.50915C13.4999 1.67752 13.433 1.839 13.314 1.95805L1.58349 13.6885C1.52459 13.7475 1.45461 13.7943 1.37757 13.8262C1.30054 13.8581 1.21796 13.8745 1.13458 13.8744Z" fill="#959595"/>
<path d="M12.8653 13.8744C12.7819 13.8745 12.6993 13.8581 12.6223 13.8262C12.5452 13.7943 12.4752 13.7475 12.4164 13.6885L0.685882 1.95805C0.566825 1.839 0.499939 1.67752 0.499939 1.50915C0.499939 1.34078 0.566825 1.1793 0.685882 1.06024C0.804939 0.941184 0.966416 0.874298 1.13479 0.874298C1.30316 0.874298 1.46464 0.941184 1.58369 1.06024L13.3142 12.7907C13.403 12.8795 13.4634 12.9926 13.4879 13.1157C13.5124 13.2389 13.4999 13.3665 13.4518 13.4825C13.4038 13.5986 13.3224 13.6977 13.218 13.7674C13.1136 13.8372 12.9908 13.8744 12.8653 13.8744Z" fill="#959595"/>
</g>
<defs>
<clipPath id="clip0_54_646">
<rect width="13" height="13" fill="white" transform="translate(0.5 0.874512)"/>
</clipPath>
</defs>
</svg>
